<?xml version="1.0" encoding="UTF-8" standalone="no"?>
<!DOCTYPE svg PUBLIC "-//W3C//DTD SVG 1.1//EN"
 "http://www.w3.org/Graphics/SVG/1.1/DTD/svg11.dtd">
<!-- Generated by graphviz version 2.43.0 (0)
 -->
<!-- Title: %3 Pages: 1 -->
<svg width="669pt" height="231pt"
 viewBox="0.00 0.00 669.00 231.00" xmlns="http://www.w3.org/2000/svg" xmlns:xlink="http://www.w3.org/1999/xlink">
<g id="graph0" class="graph" transform="scale(1 1) rotate(0) translate(4 227)">
<title>%3</title>
<polygon fill="#ffffff" stroke="transparent" points="-4,4 -4,-227 665,-227 665,4 -4,4"/>
<!-- X1 -->
<g id="node1" class="node">
<title>X1</title>
<polygon fill="#ffffff" stroke="black" points="102,-206 0,-206 0,-45 102,-45 102,-206"/>
<polygon fill="none" stroke="black" points="0,-182.5 0,-205.5 102,-205.5 102,-182.5 0,-182.5"/>
<text text-anchor="start" x="42.5" y="-190.3" font-family="arial" font-size="14.00">X1</text>
<polygon fill="none" stroke="black" points="0,-159.5 0,-182.5 102,-182.5 102,-159.5 0,-159.5"/>
<text text-anchor="start" x="4" y="-167.3" font-family="arial" font-size="14.00">TE: 1&#45;967640&#45;1</text>
<polygon fill="none" stroke="black" points="0,-136.5 0,-159.5 52,-159.5 52,-136.5 0,-136.5"/>
<text text-anchor="start" x="9.5" y="-144.3" font-family="arial" font-size="14.00">MQS</text>
<polygon fill="none" stroke="black" points="52,-136.5 52,-159.5 102,-159.5 102,-136.5 52,-136.5"/>
<text text-anchor="start" x="61.5" y="-144.3" font-family="arial" font-size="14.00">4&#45;pin</text>
<polygon fill="none" stroke="black" points="0,-113.5 0,-136.5 69,-136.5 69,-113.5 0,-113.5"/>
<text text-anchor="start" x="19" y="-121.3" font-family="arial" font-size="14.00">GND</text>
<polygon fill="none" stroke="black" points="69,-113.5 69,-136.5 102,-136.5 102,-113.5 69,-113.5"/>
<text text-anchor="start" x="81.5" y="-121.3" font-family="arial" font-size="14.00">1</text>
<polygon fill="none" stroke="black" points="0,-90.5 0,-113.5 69,-113.5 69,-90.5 0,-90.5"/>
<text text-anchor="start" x="14.5" y="-98.3" font-family="arial" font-size="14.00">CAN L</text>
<polygon fill="none" stroke="black" points="69,-90.5 69,-113.5 102,-113.5 102,-90.5 69,-90.5"/>
<text text-anchor="start" x="81.5" y="-98.3" font-family="arial" font-size="14.00">2</text>
<polygon fill="none" stroke="black" points="0,-67.5 0,-90.5 69,-90.5 69,-67.5 0,-67.5"/>
<text text-anchor="start" x="13" y="-75.3" font-family="arial" font-size="14.00">CAN H</text>
<polygon fill="none" stroke="black" points="69,-67.5 69,-90.5 102,-90.5 102,-67.5 69,-67.5"/>
<text text-anchor="start" x="81.5" y="-75.3" font-family="arial" font-size="14.00">3</text>
<polygon fill="none" stroke="black" points="0,-44.5 0,-67.5 69,-67.5 69,-44.5 0,-44.5"/>
<text text-anchor="start" x="15" y="-52.3" font-family="arial" font-size="14.00">Power</text>
<polygon fill="none" stroke="black" points="69,-44.5 69,-67.5 102,-67.5 102,-44.5 69,-44.5"/>
<text text-anchor="start" x="81.5" y="-52.3" font-family="arial" font-size="14.00">4</text>
</g>
<!-- W1 -->
<g id="node4" class="node">
<title>W1</title>
<polygon fill="#ffffff" stroke="black" points="471,-223 246,-223 246,0 471,0 471,-223"/>
<polygon fill="none" stroke="black" points="246.5,-199.5 246.5,-222.5 471.5,-222.5 471.5,-199.5 246.5,-199.5"/>
<text text-anchor="start" x="348" y="-207.3" font-family="arial" font-size="14.00">W1</text>
<polygon fill="none" stroke="black" points="246.5,-176.5 246.5,-199.5 471.5,-199.5 471.5,-176.5 246.5,-176.5"/>
<text text-anchor="start" x="351.5" y="-184.3" font-family="arial" font-size="14.00">4x</text>
<text text-anchor="start" x="283.5" y="-163.3" font-family="arial" font-size="14.00"> </text>
<text text-anchor="start" x="254" y="-144.3" font-family="arial" font-size="14.00">X1:1:GND</text>
<text text-anchor="start" x="339.5" y="-144.3" font-family="arial" font-size="14.00"> &#160;&#160;&#160;&#160;1:BK &#160;&#160;&#160;</text>
<text text-anchor="start" x="420.5" y="-144.3" font-family="arial" font-size="14.00">MBB1:3</text>
<polygon fill="#000000" stroke="transparent" points="246.5,-136.5 246.5,-138.5 471.5,-138.5 471.5,-136.5 246.5,-136.5"/>
<polygon fill="#000000" stroke="transparent" points="246.5,-134.5 246.5,-136.5 471.5,-136.5 471.5,-134.5 246.5,-134.5"/>
<polygon fill="#000000" stroke="transparent" points="246.5,-132.5 246.5,-134.5 471.5,-134.5 471.5,-132.5 246.5,-132.5"/>
<polygon fill="#000000" stroke="transparent" points="246.5,-130.5 246.5,-132.5 471.5,-132.5 471.5,-130.5 246.5,-130.5"/>
<polygon fill="#000000" stroke="transparent" points="246.5,-128.5 246.5,-130.5 471.5,-130.5 471.5,-128.5 246.5,-128.5"/>
<text text-anchor="start" x="249.5" y="-115.3" font-family="arial" font-size="14.00">X1:2:CAN L</text>
<text text-anchor="start" x="329" y="-115.3" font-family="arial" font-size="14.00"> &#160;&#160;&#160;&#160;2:BUGY &#160;&#160;&#160;</text>
<text text-anchor="start" x="420.5" y="-115.3" font-family="arial" font-size="14.00">MBB1:2</text>
<polygon fill="#000000" stroke="transparent" points="246.5,-107.5 246.5,-109.5 471.5,-109.5 471.5,-107.5 246.5,-107.5"/>
<polygon fill="#0066ff" stroke="transparent" points="246.5,-105.5 246.5,-107.5 471.5,-107.5 471.5,-105.5 246.5,-105.5"/>
<polygon fill="#999999" stroke="transparent" points="246.5,-103.5 246.5,-105.5 471.5,-105.5 471.5,-103.5 246.5,-103.5"/>
<polygon fill="#0066ff" stroke="transparent" points="246.5,-101.5 246.5,-103.5 471.5,-103.5 471.5,-101.5 246.5,-101.5"/>
<polygon fill="#000000" stroke="transparent" points="246.5,-99.5 246.5,-101.5 471.5,-101.5 471.5,-99.5 246.5,-99.5"/>
<text text-anchor="start" x="248.5" y="-86.3" font-family="arial" font-size="14.00">X1:3:CAN H</text>
<text text-anchor="start" x="327" y="-86.3" font-family="arial" font-size="14.00"> &#160;&#160;&#160;&#160;3:WHGY &#160;&#160;&#160;</text>
<text text-anchor="start" x="420.5" y="-86.3" font-family="arial" font-size="14.00">MBB1:1</text>
<polygon fill="#000000" stroke="transparent" points="246.5,-78.5 246.5,-80.5 471.5,-80.5 471.5,-78.5 246.5,-78.5"/>
<polygon fill="#ffffff" stroke="transparent" points="246.5,-76.5 246.5,-78.5 471.5,-78.5 471.5,-76.5 246.5,-76.5"/>
<polygon fill="#999999" stroke="transparent" points="246.5,-74.5 246.5,-76.5 471.5,-76.5 471.5,-74.5 246.5,-74.5"/>
<polygon fill="#ffffff" stroke="transparent" points="246.5,-72.5 246.5,-74.5 471.5,-74.5 471.5,-72.5 246.5,-72.5"/>
<polygon fill="#000000" stroke="transparent" points="246.5,-70.5 246.5,-72.5 471.5,-72.5 471.5,-70.5 246.5,-70.5"/>
<text text-anchor="start" x="250.5" y="-57.3" font-family="arial" font-size="14.00">X1:4:Power</text>
<text text-anchor="start" x="326.5" y="-57.3" font-family="arial" font-size="14.00"> &#160;&#160;&#160;&#160;4:WHGN &#160;&#160;&#160;</text>
<text text-anchor="start" x="420.5" y="-57.3" font-family="arial" font-size="14.00">MBB2:2</text>
<polygon fill="#000000" stroke="transparent" points="246.5,-49.5 246.5,-51.5 471.5,-51.5 471.5,-49.5 246.5,-49.5"/>
<polygon fill="#ffffff" stroke="transparent" points="246.5,-47.5 246.5,-49.5 471.5,-49.5 471.5,-47.5 246.5,-47.5"/>
<polygon fill="#00ff00" stroke="transparent" points="246.5,-45.5 246.5,-47.5 471.5,-47.5 471.5,-45.5 246.5,-45.5"/>
<polygon fill="#ffffff" stroke="transparent" points="246.5,-43.5 246.5,-45.5 471.5,-45.5 471.5,-43.5 246.5,-43.5"/>
<polygon fill="#000000" stroke="transparent" points="246.5,-41.5 246.5,-43.5 471.5,-43.5 471.5,-41.5 246.5,-41.5"/>
<text text-anchor="start" x="283.5" y="-28.3" font-family="arial" font-size="14.00"> </text>
<polygon fill="none" stroke="black" points="246.5,0.5 246.5,-22.5 471.5,-22.5 471.5,0.5 246.5,0.5"/>
<text text-anchor="start" x="325.5" y="-7.3" font-family="arial" font-size="14.00">Bosch IMU</text>
</g>
<!-- X1&#45;&#45;W1 -->
<g id="edge1" class="edge">
<title>X1:e&#45;&#45;W1:w</title>
<path fill="none" stroke="#000000" stroke-width="2" d="M102,-120.5C168.11,-121.03 183.86,-130.03 246,-129.5"/>
<path fill="none" stroke="#000000" stroke-width="2" d="M102,-122.5C167.12,-122.76 182.87,-131.76 246,-131.5"/>
<path fill="none" stroke="#000000" stroke-width="2" d="M102,-124.5C166.12,-124.5 181.88,-133.5 246,-133.5"/>
<path fill="none" stroke="#000000" stroke-width="2" d="M102,-126.5C165.13,-126.24 180.88,-135.24 246,-135.5"/>
<path fill="none" stroke="#000000" stroke-width="2" d="M102,-128.5C164.14,-127.97 179.89,-136.97 246,-137.5"/>
</g>
<!-- X1&#45;&#45;W1 -->
<g id="edge3" class="edge">
<title>X1:e&#45;&#45;W1:w</title>
<path fill="none" stroke="#000000" stroke-width="2" d="M102,-97.5C166.75,-97.57 182.72,-100.57 246,-100.5"/>
<path fill="none" stroke="#0066ff" stroke-width="2" d="M102,-99.5C166.38,-99.53 182.36,-102.53 246,-102.5"/>
<path fill="none" stroke="#999999" stroke-width="2" d="M102,-101.5C166.01,-101.5 181.99,-104.5 246,-104.5"/>
<path fill="none" stroke="#0066ff" stroke-width="2" d="M102,-103.5C165.64,-103.47 181.62,-106.47 246,-106.5"/>
<path fill="none" stroke="#000000" stroke-width="2" d="M102,-105.5C165.28,-105.43 181.25,-108.43 246,-108.5"/>
</g>
<!-- X1&#45;&#45;W1 -->
<g id="edge5" class="edge">
<title>X1:e&#45;&#45;W1:w</title>
<path fill="none" stroke="#000000" stroke-width="2" d="M102,-74.5C165.28,-74.57 181.25,-71.57 246,-71.5"/>
<path fill="none" stroke="#ffffff" stroke-width="2" d="M102,-76.5C165.64,-76.53 181.62,-73.53 246,-73.5"/>
<path fill="none" stroke="#999999" stroke-width="2" d="M102,-78.5C166.01,-78.5 181.99,-75.5 246,-75.5"/>
<path fill="none" stroke="#ffffff" stroke-width="2" d="M102,-80.5C166.38,-80.47 182.36,-77.47 246,-77.5"/>
<path fill="none" stroke="#000000" stroke-width="2" d="M102,-82.5C166.75,-82.43 182.72,-79.43 246,-79.5"/>
</g>
<!-- X1&#45;&#45;W1 -->
<g id="edge7" class="edge">
<title>X1:e&#45;&#45;W1:w</title>
<path fill="none" stroke="#000000" stroke-width="2" d="M102,-51.5C164.14,-52.03 179.89,-43.03 246,-42.5"/>
<path fill="none" stroke="#ffffff" stroke-width="2" d="M102,-53.5C165.13,-53.76 180.88,-44.76 246,-44.5"/>
<path fill="none" stroke="#00ff00" stroke-width="2" d="M102,-55.5C166.12,-55.5 181.88,-46.5 246,-46.5"/>
<path fill="none" stroke="#ffffff" stroke-width="2" d="M102,-57.5C167.12,-57.24 182.87,-48.24 246,-48.5"/>
<path fill="none" stroke="#000000" stroke-width="2" d="M102,-59.5C168.11,-58.97 183.86,-49.97 246,-50.5"/>
</g>
<!-- MBB1 -->
<g id="node2" class="node">
<title>MBB1</title>
<polygon fill="#ffffff" stroke="black" points="661,-212 615,-212 615,-97 661,-97 661,-212"/>
<polygon fill="none" stroke="black" points="615,-188.5 615,-211.5 661,-211.5 661,-188.5 615,-188.5"/>
<text text-anchor="start" x="619" y="-196.3" font-family="arial" font-size="14.00">MBB1</text>
<polygon fill="none" stroke="black" points="615,-165.5 615,-188.5 661,-188.5 661,-165.5 615,-165.5"/>
<text text-anchor="start" x="619" y="-173.3" font-family="arial" font-size="14.00">48&#45;pin</text>
<polygon fill="none" stroke="black" points="615,-142.5 615,-165.5 661,-165.5 661,-142.5 615,-142.5"/>
<text text-anchor="start" x="634" y="-150.3" font-family="arial" font-size="14.00">1</text>
<polygon fill="none" stroke="black" points="615,-119.5 615,-142.5 661,-142.5 661,-119.5 615,-119.5"/>
<text text-anchor="start" x="634" y="-127.3" font-family="arial" font-size="14.00">2</text>
<polygon fill="none" stroke="black" points="615,-96.5 615,-119.5 661,-119.5 661,-96.5 615,-96.5"/>
<text text-anchor="start" x="634" y="-104.3" font-family="arial" font-size="14.00">3</text>
</g>
<!-- MBB2 -->
<g id="node3" class="node">
<title>MBB2</title>
<polygon fill="#ffffff" stroke="black" points="661,-73 615,-73 615,-4 661,-4 661,-73"/>
<polygon fill="none" stroke="black" points="615,-49.5 615,-72.5 661,-72.5 661,-49.5 615,-49.5"/>
<text text-anchor="start" x="619" y="-57.3" font-family="arial" font-size="14.00">MBB2</text>
<polygon fill="none" stroke="black" points="615,-26.5 615,-49.5 661,-49.5 661,-26.5 615,-26.5"/>
<text text-anchor="start" x="619" y="-34.3" font-family="arial" font-size="14.00">36&#45;pin</text>
<polygon fill="none" stroke="black" points="615,-3.5 615,-26.5 661,-26.5 661,-3.5 615,-3.5"/>
<text text-anchor="start" x="634" y="-11.3" font-family="arial" font-size="14.00">2</text>
</g>
<!-- W1&#45;&#45;MBB1 -->
<g id="edge2" class="edge">
<title>W1:e&#45;&#45;MBB1:w</title>
<path fill="none" stroke="#000000" stroke-width="2" d="M471,-129.5C532.51,-131.61 546.44,-105.61 615,-103.5"/>
<path fill="none" stroke="#000000" stroke-width="2" d="M471,-131.5C534.27,-132.56 548.2,-106.56 615,-105.5"/>
<path fill="none" stroke="#000000" stroke-width="2" d="M471,-133.5C536.03,-133.5 549.97,-107.5 615,-107.5"/>
<path fill="none" stroke="#000000" stroke-width="2" d="M471,-135.5C537.8,-134.44 551.73,-108.44 615,-109.5"/>
<path fill="none" stroke="#000000" stroke-width="2" d="M471,-137.5C539.56,-135.39 553.49,-109.39 615,-111.5"/>
</g>
<!-- W1&#45;&#45;MBB1 -->
<g id="edge4" class="edge">
<title>W1:e&#45;&#45;MBB1:w</title>
<path fill="none" stroke="#000000" stroke-width="2" d="M471,-100.5C539.56,-102.61 553.49,-128.61 615,-126.5"/>
<path fill="none" stroke="#0066ff" stroke-width="2" d="M471,-102.5C537.8,-103.56 551.73,-129.56 615,-128.5"/>
<path fill="none" stroke="#999999" stroke-width="2" d="M471,-104.5C536.03,-104.5 549.97,-130.5 615,-130.5"/>
<path fill="none" stroke="#0066ff" stroke-width="2" d="M471,-106.5C534.27,-105.44 548.2,-131.44 615,-132.5"/>
<path fill="none" stroke="#000000" stroke-width="2" d="M471,-108.5C532.51,-106.39 546.44,-132.39 615,-134.5"/>
</g>
<!-- W1&#45;&#45;MBB1 -->
<g id="edge6" class="edge">
<title>W1:e&#45;&#45;MBB1:w</title>
<path fill="none" stroke="#000000" stroke-width="2" d="M471,-71.5C547.79,-75.58 546.21,-153.58 615,-149.5"/>
<path fill="none" stroke="#ffffff" stroke-width="2" d="M471,-73.5C545.79,-75.54 544.21,-153.54 615,-151.5"/>
<path fill="none" stroke="#999999" stroke-width="2" d="M471,-75.5C543.79,-75.5 542.21,-153.5 615,-153.5"/>
<path fill="none" stroke="#ffffff" stroke-width="2" d="M471,-77.5C541.79,-75.46 540.21,-153.46 615,-155.5"/>
<path fill="none" stroke="#000000" stroke-width="2" d="M471,-79.5C539.79,-75.42 538.21,-153.42 615,-157.5"/>
</g>
<!-- W1&#45;&#45;MBB2 -->
<g id="edge8" class="edge">
<title>W1:e&#45;&#45;MBB2:w</title>
<path fill="none" stroke="#000000" stroke-width="2" d="M471,-42.5C532.85,-45.01 545.73,-13.01 615,-10.5"/>
<path fill="none" stroke="#ffffff" stroke-width="2" d="M471,-44.5C534.71,-45.75 547.58,-13.75 615,-12.5"/>
<path fill="none" stroke="#00ff00" stroke-width="2" d="M471,-46.5C536.56,-46.5 549.44,-14.5 615,-14.5"/>
<path fill="none" stroke="#ffffff" stroke-width="2" d="M471,-48.5C538.42,-47.25 551.29,-15.25 615,-16.5"/>
<path fill="none" stroke="#000000" stroke-width="2" d="M471,-50.5C540.27,-47.99 553.15,-15.99 615,-18.5"/>
</g>
</g>
</svg>
