<?xml version="1.0" encoding="UTF-8" standalone="no"?>
<!DOCTYPE svg PUBLIC "-//W3C//DTD SVG 1.1//EN"
 "http://www.w3.org/Graphics/SVG/1.1/DTD/svg11.dtd">
<!-- Generated by graphviz version 2.43.0 (0)
 -->
<!-- Title: %3 Pages: 1 -->
<svg width="734pt" height="478pt"
 viewBox="0.00 0.00 734.00 478.00" xmlns="http://www.w3.org/2000/svg" xmlns:xlink="http://www.w3.org/1999/xlink">
<g id="graph0" class="graph" transform="scale(1 1) rotate(0) translate(4 474)">
<title>%3</title>
<polygon fill="#ffffff" stroke="transparent" points="-4,4 -4,-474 730,-474 730,4 -4,4"/>
<!-- X1 -->
<g id="node1" class="node">
<title>X1</title>
<polygon fill="#ffffff" stroke="black" points="132,-375 0,-375 0,-122 132,-122 132,-375"/>
<polygon fill="none" stroke="black" points="0,-351.5 0,-374.5 132,-374.5 132,-351.5 0,-351.5"/>
<text text-anchor="start" x="57.5" y="-359.3" font-family="arial" font-size="14.00">X1</text>
<polygon fill="none" stroke="black" points="0,-328.5 0,-351.5 132,-351.5 132,-328.5 0,-328.5"/>
<text text-anchor="start" x="5.5" y="-336.3" font-family="arial" font-size="14.00">Molex: 33482&#45;4801 </text>
<polygon fill="none" stroke="black" points="0,-305.5 0,-328.5 73,-328.5 73,-305.5 0,-305.5"/>
<text text-anchor="start" x="14.5" y="-313.3" font-family="arial" font-size="14.00">MX150</text>
<polygon fill="none" stroke="black" points="73,-305.5 73,-328.5 132,-328.5 132,-305.5 73,-305.5"/>
<text text-anchor="start" x="87" y="-313.3" font-family="arial" font-size="14.00">8&#45;pin</text>
<polygon fill="none" stroke="black" points="0,-282.5 0,-305.5 116,-305.5 116,-282.5 0,-282.5"/>
<text text-anchor="start" x="36.5" y="-290.3" font-family="arial" font-size="14.00">RIGHT</text>
<polygon fill="none" stroke="black" points="116,-282.5 116,-305.5 132,-305.5 132,-282.5 116,-282.5"/>
<text text-anchor="start" x="120" y="-290.3" font-family="arial" font-size="14.00">1</text>
<polygon fill="none" stroke="black" points="0,-259.5 0,-282.5 116,-282.5 116,-259.5 0,-259.5"/>
<text text-anchor="start" x="35.5" y="-267.3" font-family="arial" font-size="14.00">R GND</text>
<polygon fill="none" stroke="black" points="116,-259.5 116,-282.5 132,-282.5 132,-259.5 116,-259.5"/>
<text text-anchor="start" x="120" y="-267.3" font-family="arial" font-size="14.00">2</text>
<polygon fill="none" stroke="black" points="0,-236.5 0,-259.5 116,-259.5 116,-236.5 0,-236.5"/>
<text text-anchor="start" x="41" y="-244.3" font-family="arial" font-size="14.00">LEFT</text>
<polygon fill="none" stroke="black" points="116,-236.5 116,-259.5 132,-259.5 132,-236.5 116,-236.5"/>
<text text-anchor="start" x="120" y="-244.3" font-family="arial" font-size="14.00">3</text>
<polygon fill="none" stroke="black" points="0,-213.5 0,-236.5 116,-236.5 116,-213.5 0,-213.5"/>
<text text-anchor="start" x="36.5" y="-221.3" font-family="arial" font-size="14.00">L GND</text>
<polygon fill="none" stroke="black" points="116,-213.5 116,-236.5 132,-236.5 132,-213.5 116,-213.5"/>
<text text-anchor="start" x="120" y="-221.3" font-family="arial" font-size="14.00">4</text>
<polygon fill="none" stroke="black" points="0,-190.5 0,-213.5 116,-213.5 116,-190.5 0,-190.5"/>
<text text-anchor="start" x="11.5" y="-198.3" font-family="arial" font-size="14.00">12V BrakeLight</text>
<polygon fill="none" stroke="black" points="116,-190.5 116,-213.5 132,-213.5 132,-190.5 116,-190.5"/>
<text text-anchor="start" x="120" y="-198.3" font-family="arial" font-size="14.00">5</text>
<polygon fill="none" stroke="black" points="0,-167.5 0,-190.5 116,-190.5 116,-167.5 0,-167.5"/>
<text text-anchor="start" x="42.5" y="-175.3" font-family="arial" font-size="14.00">GND</text>
<polygon fill="none" stroke="black" points="116,-167.5 116,-190.5 132,-190.5 132,-167.5 116,-167.5"/>
<text text-anchor="start" x="120" y="-175.3" font-family="arial" font-size="14.00">6</text>
<polygon fill="none" stroke="black" points="0,-144.5 0,-167.5 116,-167.5 116,-144.5 0,-144.5"/>
<text text-anchor="start" x="4" y="-152.3" font-family="arial" font-size="14.00">12V RunningLight</text>
<polygon fill="none" stroke="black" points="116,-144.5 116,-167.5 132,-167.5 132,-144.5 116,-144.5"/>
<text text-anchor="start" x="120" y="-152.3" font-family="arial" font-size="14.00">7</text>
<polygon fill="none" stroke="black" points="0,-121.5 0,-144.5 116,-144.5 116,-121.5 0,-121.5"/>
<text text-anchor="start" x="35" y="-129.3" font-family="arial" font-size="14.00">BRAKE</text>
<polygon fill="none" stroke="black" points="116,-121.5 116,-144.5 132,-144.5 132,-121.5 116,-121.5"/>
<text text-anchor="start" x="120" y="-129.3" font-family="arial" font-size="14.00">8</text>
</g>
<!-- TurnSignal -->
<g id="node7" class="node">
<title>TurnSignal</title>
<polygon fill="#ffffff" stroke="black" points="512.5,-470 306.5,-470 306.5,-247 512.5,-247 512.5,-470"/>
<polygon fill="none" stroke="black" points="306.5,-446.5 306.5,-469.5 512.5,-469.5 512.5,-446.5 306.5,-446.5"/>
<text text-anchor="start" x="376.5" y="-454.3" font-family="arial" font-size="14.00">TurnSignal</text>
<polygon fill="none" stroke="black" points="306.5,-423.5 306.5,-446.5 396.5,-446.5 396.5,-423.5 306.5,-423.5"/>
<text text-anchor="start" x="344" y="-431.3" font-family="arial" font-size="14.00">4x</text>
<polygon fill="none" stroke="black" points="396.5,-423.5 396.5,-446.5 512.5,-446.5 512.5,-423.5 396.5,-423.5"/>
<text text-anchor="start" x="434" y="-431.3" font-family="arial" font-size="14.00">14.0 in</text>
<text text-anchor="start" x="344.5" y="-410.3" font-family="arial" font-size="14.00"> </text>
<text text-anchor="start" x="309" y="-391.3" font-family="arial" font-size="14.00">X1:1:RIGHT</text>
<text text-anchor="start" x="388.5" y="-391.3" font-family="arial" font-size="14.00"> &#160;&#160;&#160;&#160;1:WHGN &#160;&#160;&#160;</text>
<text text-anchor="start" x="482.5" y="-391.3" font-family="arial" font-size="14.00">X3:1</text>
<polygon fill="#000000" stroke="transparent" points="306.5,-383.5 306.5,-385.5 512.5,-385.5 512.5,-383.5 306.5,-383.5"/>
<polygon fill="#ffffff" stroke="transparent" points="306.5,-381.5 306.5,-383.5 512.5,-383.5 512.5,-381.5 306.5,-381.5"/>
<polygon fill="#00ff00" stroke="transparent" points="306.5,-379.5 306.5,-381.5 512.5,-381.5 512.5,-379.5 306.5,-379.5"/>
<polygon fill="#ffffff" stroke="transparent" points="306.5,-377.5 306.5,-379.5 512.5,-379.5 512.5,-377.5 306.5,-377.5"/>
<polygon fill="#000000" stroke="transparent" points="306.5,-375.5 306.5,-377.5 512.5,-377.5 512.5,-375.5 306.5,-375.5"/>
<text text-anchor="start" x="308.5" y="-362.3" font-family="arial" font-size="14.00">X1:2:R GND</text>
<text text-anchor="start" x="401.5" y="-362.3" font-family="arial" font-size="14.00"> &#160;&#160;&#160;&#160;2:BK &#160;&#160;&#160;</text>
<text text-anchor="start" x="482.5" y="-362.3" font-family="arial" font-size="14.00">X4:1</text>
<polygon fill="#000000" stroke="transparent" points="306.5,-354.5 306.5,-356.5 512.5,-356.5 512.5,-354.5 306.5,-354.5"/>
<polygon fill="#000000" stroke="transparent" points="306.5,-352.5 306.5,-354.5 512.5,-354.5 512.5,-352.5 306.5,-352.5"/>
<polygon fill="#000000" stroke="transparent" points="306.5,-350.5 306.5,-352.5 512.5,-352.5 512.5,-350.5 306.5,-350.5"/>
<polygon fill="#000000" stroke="transparent" points="306.5,-348.5 306.5,-350.5 512.5,-350.5 512.5,-348.5 306.5,-348.5"/>
<polygon fill="#000000" stroke="transparent" points="306.5,-346.5 306.5,-348.5 512.5,-348.5 512.5,-346.5 306.5,-346.5"/>
<text text-anchor="start" x="314" y="-333.3" font-family="arial" font-size="14.00">X1:3:LEFT</text>
<text text-anchor="start" x="391" y="-333.3" font-family="arial" font-size="14.00"> &#160;&#160;&#160;&#160;3:RDGY &#160;&#160;&#160;</text>
<text text-anchor="start" x="482.5" y="-333.3" font-family="arial" font-size="14.00">X5:1</text>
<polygon fill="#000000" stroke="transparent" points="306.5,-325.5 306.5,-327.5 512.5,-327.5 512.5,-325.5 306.5,-325.5"/>
<polygon fill="#ff0000" stroke="transparent" points="306.5,-323.5 306.5,-325.5 512.5,-325.5 512.5,-323.5 306.5,-323.5"/>
<polygon fill="#999999" stroke="transparent" points="306.5,-321.5 306.5,-323.5 512.5,-323.5 512.5,-321.5 306.5,-321.5"/>
<polygon fill="#ff0000" stroke="transparent" points="306.5,-319.5 306.5,-321.5 512.5,-321.5 512.5,-319.5 306.5,-319.5"/>
<polygon fill="#000000" stroke="transparent" points="306.5,-317.5 306.5,-319.5 512.5,-319.5 512.5,-317.5 306.5,-317.5"/>
<text text-anchor="start" x="309.5" y="-304.3" font-family="arial" font-size="14.00">X1:4:L GND</text>
<text text-anchor="start" x="401.5" y="-304.3" font-family="arial" font-size="14.00"> &#160;&#160;&#160;&#160;4:BK &#160;&#160;&#160;</text>
<text text-anchor="start" x="482.5" y="-304.3" font-family="arial" font-size="14.00">X6:1</text>
<polygon fill="#000000" stroke="transparent" points="306.5,-296.5 306.5,-298.5 512.5,-298.5 512.5,-296.5 306.5,-296.5"/>
<polygon fill="#000000" stroke="transparent" points="306.5,-294.5 306.5,-296.5 512.5,-296.5 512.5,-294.5 306.5,-294.5"/>
<polygon fill="#000000" stroke="transparent" points="306.5,-292.5 306.5,-294.5 512.5,-294.5 512.5,-292.5 306.5,-292.5"/>
<polygon fill="#000000" stroke="transparent" points="306.5,-290.5 306.5,-292.5 512.5,-292.5 512.5,-290.5 306.5,-290.5"/>
<polygon fill="#000000" stroke="transparent" points="306.5,-288.5 306.5,-290.5 512.5,-290.5 512.5,-288.5 306.5,-288.5"/>
<text text-anchor="start" x="344.5" y="-275.3" font-family="arial" font-size="14.00"> </text>
<polygon fill="none" stroke="black" points="306.5,-246.5 306.5,-269.5 512.5,-269.5 512.5,-246.5 306.5,-246.5"/>
<text text-anchor="start" x="344.5" y="-254.3" font-family="arial" font-size="14.00">Harn S MBB ctrl CHS</text>
</g>
<!-- X1&#45;&#45;TurnSignal -->
<g id="edge1" class="edge">
<title>X1:e&#45;&#45;TurnSignal:w</title>
<path fill="none" stroke="#000000" stroke-width="2" d="M132,-290.5C222.06,-294.44 223.44,-380.44 305.5,-376.5"/>
<path fill="none" stroke="#ffffff" stroke-width="2" d="M132,-292.5C220.06,-294.47 221.44,-380.47 305.5,-378.5"/>
<path fill="none" stroke="#00ff00" stroke-width="2" d="M132,-294.5C218.06,-294.5 219.44,-380.5 305.5,-380.5"/>
<path fill="none" stroke="#ffffff" stroke-width="2" d="M132,-296.5C216.06,-294.53 217.44,-380.53 305.5,-382.5"/>
<path fill="none" stroke="#000000" stroke-width="2" d="M132,-298.5C214.06,-294.56 215.44,-380.56 305.5,-384.5"/>
</g>
<!-- X1&#45;&#45;TurnSignal -->
<g id="edge2" class="edge">
<title>X1:e&#45;&#45;TurnSignal:w</title>
<path fill="none" stroke="#000000" stroke-width="2" d="M132,-267.5C220.91,-271.32 224.58,-351.32 305.5,-347.5"/>
<path fill="none" stroke="#000000" stroke-width="2" d="M132,-269.5C218.91,-271.41 222.58,-351.41 305.5,-349.5"/>
<path fill="none" stroke="#000000" stroke-width="2" d="M132,-271.5C216.91,-271.5 220.59,-351.5 305.5,-351.5"/>
<path fill="none" stroke="#000000" stroke-width="2" d="M132,-273.5C214.92,-271.59 218.59,-351.59 305.5,-353.5"/>
<path fill="none" stroke="#000000" stroke-width="2" d="M132,-275.5C212.92,-271.68 216.59,-351.68 305.5,-355.5"/>
</g>
<!-- X1&#45;&#45;TurnSignal -->
<g id="edge3" class="edge">
<title>X1:e&#45;&#45;TurnSignal:w</title>
<path fill="none" stroke="#000000" stroke-width="2" d="M132,-243.5C220,-247.21 225.48,-322.21 305.5,-318.5"/>
<path fill="none" stroke="#ff0000" stroke-width="2" d="M132,-245.5C218,-247.35 223.49,-322.35 305.5,-320.5"/>
<path fill="none" stroke="#999999" stroke-width="2" d="M132,-247.5C216.01,-247.5 221.49,-322.5 305.5,-322.5"/>
<path fill="none" stroke="#ff0000" stroke-width="2" d="M132,-249.5C214.01,-247.65 219.5,-322.65 305.5,-324.5"/>
<path fill="none" stroke="#000000" stroke-width="2" d="M132,-251.5C212.02,-247.79 217.5,-322.79 305.5,-326.5"/>
</g>
<!-- X1&#45;&#45;TurnSignal -->
<g id="edge4" class="edge">
<title>X1:e&#45;&#45;TurnSignal:w</title>
<path fill="none" stroke="#000000" stroke-width="2" d="M132,-220.5C218.96,-224.07 226.49,-293.07 305.5,-289.5"/>
<path fill="none" stroke="#000000" stroke-width="2" d="M132,-222.5C216.97,-224.28 224.5,-293.28 305.5,-291.5"/>
<path fill="none" stroke="#000000" stroke-width="2" d="M132,-224.5C214.99,-224.5 222.51,-293.5 305.5,-293.5"/>
<path fill="none" stroke="#000000" stroke-width="2" d="M132,-226.5C213,-224.72 220.53,-293.72 305.5,-295.5"/>
<path fill="none" stroke="#000000" stroke-width="2" d="M132,-228.5C211.01,-224.93 218.54,-293.93 305.5,-297.5"/>
</g>
<!-- BrakeLight -->
<g id="node8" class="node">
<title>BrakeLight</title>
<polygon fill="#ffffff" stroke="black" points="543,-223 276,-223 276,0 543,0 543,-223"/>
<polygon fill="none" stroke="black" points="276.5,-199.5 276.5,-222.5 543.5,-222.5 543.5,-199.5 276.5,-199.5"/>
<text text-anchor="start" x="377.5" y="-207.3" font-family="arial" font-size="14.00">BrakeLight</text>
<polygon fill="none" stroke="black" points="276.5,-176.5 276.5,-199.5 397.5,-199.5 397.5,-176.5 276.5,-176.5"/>
<text text-anchor="start" x="329.5" y="-184.3" font-family="arial" font-size="14.00">4x</text>
<polygon fill="none" stroke="black" points="397.5,-176.5 397.5,-199.5 543.5,-199.5 543.5,-176.5 397.5,-176.5"/>
<text text-anchor="start" x="450" y="-184.3" font-family="arial" font-size="14.00">14.0 in</text>
<text text-anchor="start" x="346" y="-163.3" font-family="arial" font-size="14.00"> </text>
<text text-anchor="start" x="286" y="-144.3" font-family="arial" font-size="14.00">X1:5:12V BrakeLight</text>
<text text-anchor="start" x="421.5" y="-144.3" font-family="arial" font-size="14.00"> &#160;&#160;&#160;&#160;1:RDWH &#160;&#160;&#160;</text>
<text text-anchor="start" x="513.5" y="-144.3" font-family="arial" font-size="14.00">X2:4</text>
<polygon fill="#000000" stroke="transparent" points="276.5,-136.5 276.5,-138.5 543.5,-138.5 543.5,-136.5 276.5,-136.5"/>
<polygon fill="#ff0000" stroke="transparent" points="276.5,-134.5 276.5,-136.5 543.5,-136.5 543.5,-134.5 276.5,-134.5"/>
<polygon fill="#ffffff" stroke="transparent" points="276.5,-132.5 276.5,-134.5 543.5,-134.5 543.5,-132.5 276.5,-132.5"/>
<polygon fill="#ff0000" stroke="transparent" points="276.5,-130.5 276.5,-132.5 543.5,-132.5 543.5,-130.5 276.5,-130.5"/>
<polygon fill="#000000" stroke="transparent" points="276.5,-128.5 276.5,-130.5 543.5,-130.5 543.5,-128.5 276.5,-128.5"/>
<text text-anchor="start" x="316.5" y="-115.3" font-family="arial" font-size="14.00">X1:6:GND</text>
<text text-anchor="start" x="433.5" y="-115.3" font-family="arial" font-size="14.00"> &#160;&#160;&#160;&#160;2:BK &#160;&#160;&#160;</text>
<text text-anchor="start" x="513.5" y="-115.3" font-family="arial" font-size="14.00">X2:2</text>
<polygon fill="#000000" stroke="transparent" points="276.5,-107.5 276.5,-109.5 543.5,-109.5 543.5,-107.5 276.5,-107.5"/>
<polygon fill="#000000" stroke="transparent" points="276.5,-105.5 276.5,-107.5 543.5,-107.5 543.5,-105.5 276.5,-105.5"/>
<polygon fill="#000000" stroke="transparent" points="276.5,-103.5 276.5,-105.5 543.5,-105.5 543.5,-103.5 276.5,-103.5"/>
<polygon fill="#000000" stroke="transparent" points="276.5,-101.5 276.5,-103.5 543.5,-103.5 543.5,-101.5 276.5,-101.5"/>
<polygon fill="#000000" stroke="transparent" points="276.5,-99.5 276.5,-101.5 543.5,-101.5 543.5,-99.5 276.5,-99.5"/>
<text text-anchor="start" x="278.5" y="-86.3" font-family="arial" font-size="14.00">X1:7:12V RunningLight</text>
<text text-anchor="start" x="433.5" y="-86.3" font-family="arial" font-size="14.00"> &#160;&#160;&#160;&#160;3:BN &#160;&#160;&#160;</text>
<text text-anchor="start" x="513.5" y="-86.3" font-family="arial" font-size="14.00">X2:1</text>
<polygon fill="#000000" stroke="transparent" points="276.5,-78.5 276.5,-80.5 543.5,-80.5 543.5,-78.5 276.5,-78.5"/>
<polygon fill="#895956" stroke="transparent" points="276.5,-76.5 276.5,-78.5 543.5,-78.5 543.5,-76.5 276.5,-76.5"/>
<polygon fill="#895956" stroke="transparent" points="276.5,-74.5 276.5,-76.5 543.5,-76.5 543.5,-74.5 276.5,-74.5"/>
<polygon fill="#895956" stroke="transparent" points="276.5,-72.5 276.5,-74.5 543.5,-74.5 543.5,-72.5 276.5,-72.5"/>
<polygon fill="#000000" stroke="transparent" points="276.5,-70.5 276.5,-72.5 543.5,-72.5 543.5,-70.5 276.5,-70.5"/>
<text text-anchor="start" x="309" y="-57.3" font-family="arial" font-size="14.00">X1:8:BRAKE</text>
<text text-anchor="start" x="422" y="-57.3" font-family="arial" font-size="14.00"> &#160;&#160;&#160;&#160;4:WHBK &#160;&#160;&#160;</text>
<text text-anchor="start" x="513.5" y="-57.3" font-family="arial" font-size="14.00">X2:3</text>
<polygon fill="#000000" stroke="transparent" points="276.5,-49.5 276.5,-51.5 543.5,-51.5 543.5,-49.5 276.5,-49.5"/>
<polygon fill="#ffffff" stroke="transparent" points="276.5,-47.5 276.5,-49.5 543.5,-49.5 543.5,-47.5 276.5,-47.5"/>
<polygon fill="#000000" stroke="transparent" points="276.5,-45.5 276.5,-47.5 543.5,-47.5 543.5,-45.5 276.5,-45.5"/>
<polygon fill="#ffffff" stroke="transparent" points="276.5,-43.5 276.5,-45.5 543.5,-45.5 543.5,-43.5 276.5,-43.5"/>
<polygon fill="#000000" stroke="transparent" points="276.5,-41.5 276.5,-43.5 543.5,-43.5 543.5,-41.5 276.5,-41.5"/>
<text text-anchor="start" x="346" y="-28.3" font-family="arial" font-size="14.00"> </text>
<polygon fill="none" stroke="black" points="276.5,0.5 276.5,-22.5 543.5,-22.5 543.5,0.5 276.5,0.5"/>
<text text-anchor="start" x="345" y="-7.3" font-family="arial" font-size="14.00">Harn S MBB ctrl CHS</text>
</g>
<!-- X1&#45;&#45;BrakeLight -->
<g id="edge9" class="edge">
<title>X1:e&#45;&#45;BrakeLight:w</title>
<path fill="none" stroke="#000000" stroke-width="2" d="M132,-197.5C198.78,-201.36 201.23,-133.36 276,-129.5"/>
<path fill="none" stroke="#ff0000" stroke-width="2" d="M132,-199.5C200.78,-201.43 203.22,-133.43 276,-131.5"/>
<path fill="none" stroke="#ffffff" stroke-width="2" d="M132,-201.5C202.78,-201.5 205.22,-133.5 276,-133.5"/>
<path fill="none" stroke="#ff0000" stroke-width="2" d="M132,-203.5C204.78,-201.57 207.22,-133.57 276,-135.5"/>
<path fill="none" stroke="#000000" stroke-width="2" d="M132,-205.5C206.77,-201.64 209.22,-133.64 276,-137.5"/>
</g>
<!-- X1&#45;&#45;BrakeLight -->
<g id="edge11" class="edge">
<title>X1:e&#45;&#45;BrakeLight:w</title>
<path fill="none" stroke="#000000" stroke-width="2" d="M132,-174.5C199.96,-178.5 200.04,-104.5 276,-100.5"/>
<path fill="none" stroke="#000000" stroke-width="2" d="M132,-176.5C201.96,-178.5 202.04,-104.5 276,-102.5"/>
<path fill="none" stroke="#000000" stroke-width="2" d="M132,-178.5C203.96,-178.5 204.04,-104.5 276,-104.5"/>
<path fill="none" stroke="#000000" stroke-width="2" d="M132,-180.5C205.96,-178.5 206.04,-104.5 276,-106.5"/>
<path fill="none" stroke="#000000" stroke-width="2" d="M132,-182.5C207.96,-178.5 208.04,-104.5 276,-108.5"/>
</g>
<!-- X1&#45;&#45;BrakeLight -->
<g id="edge13" class="edge">
<title>X1:e&#45;&#45;BrakeLight:w</title>
<path fill="none" stroke="#000000" stroke-width="2" d="M132,-151.5C201.22,-155.62 198.79,-75.62 276,-71.5"/>
<path fill="none" stroke="#895956" stroke-width="2" d="M132,-153.5C203.21,-155.56 200.79,-75.56 276,-73.5"/>
<path fill="none" stroke="#895956" stroke-width="2" d="M132,-155.5C205.21,-155.5 202.79,-75.5 276,-75.5"/>
<path fill="none" stroke="#895956" stroke-width="2" d="M132,-157.5C207.21,-155.44 204.79,-75.44 276,-77.5"/>
<path fill="none" stroke="#000000" stroke-width="2" d="M132,-159.5C209.21,-155.38 206.78,-75.38 276,-79.5"/>
</g>
<!-- X1&#45;&#45;BrakeLight -->
<g id="edge15" class="edge">
<title>X1:e&#45;&#45;BrakeLight:w</title>
<path fill="none" stroke="#000000" stroke-width="2" d="M132,-128.5C202.55,-132.74 197.46,-46.74 276,-42.5"/>
<path fill="none" stroke="#ffffff" stroke-width="2" d="M132,-130.5C204.55,-132.62 199.46,-46.62 276,-44.5"/>
<path fill="none" stroke="#000000" stroke-width="2" d="M132,-132.5C206.54,-132.5 201.46,-46.5 276,-46.5"/>
<path fill="none" stroke="#ffffff" stroke-width="2" d="M132,-134.5C208.54,-132.38 203.45,-46.38 276,-48.5"/>
<path fill="none" stroke="#000000" stroke-width="2" d="M132,-136.5C210.54,-132.26 205.45,-46.26 276,-50.5"/>
</g>
<!-- X2 -->
<g id="node2" class="node">
<title>X2</title>
<polygon fill="#ffffff" stroke="black" points="726,-168.5 687,-168.5 687,-30.5 726,-30.5 726,-168.5"/>
<polygon fill="none" stroke="black" points="687.5,-145.5 687.5,-168.5 726.5,-168.5 726.5,-145.5 687.5,-145.5"/>
<text text-anchor="start" x="698.5" y="-153.3" font-family="arial" font-size="14.00">X2</text>
<polygon fill="none" stroke="black" points="687.5,-122.5 687.5,-145.5 726.5,-145.5 726.5,-122.5 687.5,-122.5"/>
<text text-anchor="start" x="691.5" y="-130.3" font-family="arial" font-size="14.00">4&#45;pin</text>
<polygon fill="none" stroke="black" points="687.5,-99.5 687.5,-122.5 726.5,-122.5 726.5,-99.5 687.5,-99.5"/>
<text text-anchor="start" x="703" y="-107.3" font-family="arial" font-size="14.00">1</text>
<polygon fill="none" stroke="black" points="687.5,-76.5 687.5,-99.5 726.5,-99.5 726.5,-76.5 687.5,-76.5"/>
<text text-anchor="start" x="703" y="-84.3" font-family="arial" font-size="14.00">2</text>
<polygon fill="none" stroke="black" points="687.5,-53.5 687.5,-76.5 726.5,-76.5 726.5,-53.5 687.5,-53.5"/>
<text text-anchor="start" x="703" y="-61.3" font-family="arial" font-size="14.00">3</text>
<polygon fill="none" stroke="black" points="687.5,-30.5 687.5,-53.5 726.5,-53.5 726.5,-30.5 687.5,-30.5"/>
<text text-anchor="start" x="703" y="-38.3" font-family="arial" font-size="14.00">4</text>
</g>
<!-- X3 -->
<g id="node3" class="node">
<title>X3</title>
<polygon fill="#ffffff" stroke="black" points="719,-419 694,-419 694,-396 719,-396 719,-419"/>
<polygon fill="none" stroke="black" points="694.5,-395.5 694.5,-418.5 719.5,-418.5 719.5,-395.5 694.5,-395.5"/>
<text text-anchor="start" x="698.5" y="-403.3" font-family="arial" font-size="14.00">X3</text>
</g>
<!-- X4 -->
<g id="node4" class="node">
<title>X4</title>
<polygon fill="#ffffff" stroke="black" points="719,-372 694,-372 694,-349 719,-349 719,-372"/>
<polygon fill="none" stroke="black" points="694.5,-348.5 694.5,-371.5 719.5,-371.5 719.5,-348.5 694.5,-348.5"/>
<text text-anchor="start" x="698.5" y="-356.3" font-family="arial" font-size="14.00">X4</text>
</g>
<!-- X5 -->
<g id="node5" class="node">
<title>X5</title>
<polygon fill="#ffffff" stroke="black" points="719,-325 694,-325 694,-302 719,-302 719,-325"/>
<polygon fill="none" stroke="black" points="694.5,-301.5 694.5,-324.5 719.5,-324.5 719.5,-301.5 694.5,-301.5"/>
<text text-anchor="start" x="698.5" y="-309.3" font-family="arial" font-size="14.00">X5</text>
</g>
<!-- X6 -->
<g id="node6" class="node">
<title>X6</title>
<polygon fill="#ffffff" stroke="black" points="719,-278 694,-278 694,-255 719,-255 719,-278"/>
<polygon fill="none" stroke="black" points="694.5,-254.5 694.5,-277.5 719.5,-277.5 719.5,-254.5 694.5,-254.5"/>
<text text-anchor="start" x="698.5" y="-262.3" font-family="arial" font-size="14.00">X6</text>
</g>
<!-- TurnSignal&#45;&#45;X3 -->
<g id="edge5" class="edge">
<title>TurnSignal:e&#45;&#45;X3:w</title>
<path fill="none" stroke="#000000" stroke-width="2" d="M513.5,-376.5C597.28,-378.27 615.37,-405.27 692.5,-403.5"/>
<path fill="none" stroke="#ffffff" stroke-width="2" d="M513.5,-378.5C595.62,-379.39 613.71,-406.39 692.5,-405.5"/>
<path fill="none" stroke="#00ff00" stroke-width="2" d="M513.5,-380.5C593.96,-380.5 612.04,-407.5 692.5,-407.5"/>
<path fill="none" stroke="#ffffff" stroke-width="2" d="M513.5,-382.5C592.29,-381.61 610.38,-408.61 692.5,-409.5"/>
<path fill="none" stroke="#000000" stroke-width="2" d="M513.5,-384.5C590.63,-382.73 608.72,-409.73 692.5,-411.5"/>
</g>
<!-- TurnSignal&#45;&#45;X4 -->
<g id="edge6" class="edge">
<title>TurnSignal:e&#45;&#45;X4:w</title>
<path fill="none" stroke="#000000" stroke-width="2" d="M513.5,-347.5C594.82,-347.86 614.51,-356.86 692.5,-356.5"/>
<path fill="none" stroke="#000000" stroke-width="2" d="M513.5,-349.5C593.99,-349.68 613.68,-358.68 692.5,-358.5"/>
<path fill="none" stroke="#000000" stroke-width="2" d="M513.5,-351.5C593.16,-351.5 612.84,-360.5 692.5,-360.5"/>
<path fill="none" stroke="#000000" stroke-width="2" d="M513.5,-353.5C592.32,-353.32 612.01,-362.32 692.5,-362.5"/>
<path fill="none" stroke="#000000" stroke-width="2" d="M513.5,-355.5C591.49,-355.14 611.18,-364.14 692.5,-364.5"/>
</g>
<!-- TurnSignal&#45;&#45;X5 -->
<g id="edge7" class="edge">
<title>TurnSignal:e&#45;&#45;X5:w</title>
<path fill="none" stroke="#000000" stroke-width="2" d="M513.5,-318.5C591.49,-318.86 611.18,-309.86 692.5,-309.5"/>
<path fill="none" stroke="#ff0000" stroke-width="2" d="M513.5,-320.5C592.32,-320.68 612.01,-311.68 692.5,-311.5"/>
<path fill="none" stroke="#999999" stroke-width="2" d="M513.5,-322.5C593.16,-322.5 612.84,-313.5 692.5,-313.5"/>
<path fill="none" stroke="#ff0000" stroke-width="2" d="M513.5,-324.5C593.99,-324.32 613.68,-315.32 692.5,-315.5"/>
<path fill="none" stroke="#000000" stroke-width="2" d="M513.5,-326.5C594.82,-326.14 614.51,-317.14 692.5,-317.5"/>
</g>
<!-- TurnSignal&#45;&#45;X6 -->
<g id="edge8" class="edge">
<title>TurnSignal:e&#45;&#45;X6:w</title>
<path fill="none" stroke="#000000" stroke-width="2" d="M513.5,-289.5C590.63,-291.27 608.72,-264.27 692.5,-262.5"/>
<path fill="none" stroke="#000000" stroke-width="2" d="M513.5,-291.5C592.29,-292.39 610.38,-265.39 692.5,-264.5"/>
<path fill="none" stroke="#000000" stroke-width="2" d="M513.5,-293.5C593.96,-293.5 612.04,-266.5 692.5,-266.5"/>
<path fill="none" stroke="#000000" stroke-width="2" d="M513.5,-295.5C595.62,-294.61 613.71,-267.61 692.5,-268.5"/>
<path fill="none" stroke="#000000" stroke-width="2" d="M513.5,-297.5C597.28,-295.73 615.37,-268.73 692.5,-270.5"/>
</g>
<!-- BrakeLight&#45;&#45;X2 -->
<g id="edge10" class="edge">
<title>BrakeLight:e&#45;&#45;X2:w</title>
<path fill="none" stroke="#000000" stroke-width="2" d="M543,-129.5C614.96,-133.84 607.07,-41.84 687,-37.5"/>
<path fill="none" stroke="#ff0000" stroke-width="2" d="M543,-131.5C616.95,-133.67 609.06,-41.67 687,-39.5"/>
<path fill="none" stroke="#ffffff" stroke-width="2" d="M543,-133.5C618.95,-133.5 611.05,-41.5 687,-41.5"/>
<path fill="none" stroke="#ff0000" stroke-width="2" d="M543,-135.5C620.94,-133.33 613.05,-41.33 687,-43.5"/>
<path fill="none" stroke="#000000" stroke-width="2" d="M543,-137.5C622.93,-133.16 615.04,-41.16 687,-45.5"/>
</g>
<!-- BrakeLight&#45;&#45;X2 -->
<g id="edge12" class="edge">
<title>BrakeLight:e&#45;&#45;X2:w</title>
<path fill="none" stroke="#000000" stroke-width="2" d="M543,-100.5C604.45,-101.84 619.57,-84.84 687,-83.5"/>
<path fill="none" stroke="#000000" stroke-width="2" d="M543,-102.5C605.95,-103.17 621.06,-86.17 687,-85.5"/>
<path fill="none" stroke="#000000" stroke-width="2" d="M543,-104.5C607.44,-104.5 622.56,-87.5 687,-87.5"/>
<path fill="none" stroke="#000000" stroke-width="2" d="M543,-106.5C608.94,-105.83 624.05,-88.83 687,-89.5"/>
<path fill="none" stroke="#000000" stroke-width="2" d="M543,-108.5C610.43,-107.16 625.55,-90.16 687,-91.5"/>
</g>
<!-- BrakeLight&#45;&#45;X2 -->
<g id="edge14" class="edge">
<title>BrakeLight:e&#45;&#45;X2:w</title>
<path fill="none" stroke="#000000" stroke-width="2" d="M543,-71.5C612.76,-74.23 624.82,-110.23 687,-107.5"/>
<path fill="none" stroke="#895956" stroke-width="2" d="M543,-73.5C610.87,-74.86 622.93,-110.86 687,-109.5"/>
<path fill="none" stroke="#895956" stroke-width="2" d="M543,-75.5C608.97,-75.5 621.03,-111.5 687,-111.5"/>
<path fill="none" stroke="#895956" stroke-width="2" d="M543,-77.5C607.07,-76.14 619.13,-112.14 687,-113.5"/>
<path fill="none" stroke="#000000" stroke-width="2" d="M543,-79.5C605.18,-76.77 617.24,-112.77 687,-115.5"/>
</g>
<!-- BrakeLight&#45;&#45;X2 -->
<g id="edge16" class="edge">
<title>BrakeLight:e&#45;&#45;X2:w</title>
<path fill="none" stroke="#000000" stroke-width="2" d="M543,-42.5C610.57,-43.94 625.57,-61.94 687,-60.5"/>
<path fill="none" stroke="#ffffff" stroke-width="2" d="M543,-44.5C609.03,-45.22 624.04,-63.22 687,-62.5"/>
<path fill="none" stroke="#000000" stroke-width="2" d="M543,-46.5C607.5,-46.5 622.5,-64.5 687,-64.5"/>
<path fill="none" stroke="#ffffff" stroke-width="2" d="M543,-48.5C605.96,-47.78 620.97,-65.78 687,-66.5"/>
<path fill="none" stroke="#000000" stroke-width="2" d="M543,-50.5C604.43,-49.06 619.43,-67.06 687,-68.5"/>
</g>
</g>
</svg>
